<?xml version="1.0" standalone="no"?>
<!DOCTYPE svg PUBLIC "-//W3C//DTD SVG 20010904//EN"
 "http://www.w3.org/TR/2001/REC-SVG-20010904/DTD/svg10.dtd">
<svg version="1.0" xmlns="http://www.w3.org/2000/svg"
 width="1024.000000pt" height="1024.000000pt" viewBox="0 0 1024.000000 1024.000000"
 preserveAspectRatio="xMidYMid meet">

<g transform="translate(0.000000,1024.000000) scale(0.100000,-0.100000)"
fill="#000000" stroke="none">
<path d="M4970 8239 c-63 -38 -114 -73 -113 -79 6 -24 197 -290 204 -283 6 7
135 280 165 349 l13 31 -48 27 c-27 14 -62 26 -77 25 -17 0 -78 -30 -144 -70z"/>
<path d="M5255 8167 c-15 -34 -57 -122 -91 -195 -35 -74 -64 -138 -64 -143 0
-15 -11 -10 -30 13 l-17 22 -7 -22 c-4 -12 -10 -22 -14 -22 -4 0 -56 72 -117
160 -60 88 -110 160 -111 160 -2 0 -162 -93 -356 -207 -194 -113 -393 -230
-443 -258 -49 -29 -165 -96 -257 -150 l-168 -98 0 -88 0 -88 53 -63 c29 -35
193 -234 365 -444 171 -209 318 -386 326 -393 18 -15 34 15 175 322 49 106
107 230 129 277 22 47 56 119 75 160 19 41 55 118 80 170 24 52 59 127 77 165
162 348 169 359 189 341 18 -17 20 -16 26 3 3 12 9 21 13 21 4 0 43 -53 87
-117 44 -65 117 -172 163 -238 45 -66 115 -168 155 -227 54 -80 75 -104 83
-95 15 16 386 698 382 702 -3 4 -556 327 -634 371 l-40 24 -29 -63z"/>
<path d="M5805 7439 c-191 -353 -201 -368 -216 -349 -17 19 -17 19 -31 -2 -16
-24 -13 -27 -193 237 -38 55 -92 134 -120 175 -28 41 -80 117 -115 169 l-64
94 -49 -104 c-27 -57 -77 -165 -112 -239 -35 -74 -83 -178 -108 -230 -24 -52
-58 -124 -75 -160 -17 -36 -89 -191 -162 -345 -72 -154 -143 -306 -157 -337
-27 -59 -39 -70 -49 -43 -8 19 -24 20 -24 1 0 -37 -24 -19 -99 71 -231 281
-438 534 -536 655 -60 75 -112 137 -115 137 -3 1 -3 -349 0 -776 l5 -777 115
-68 c141 -83 211 -121 216 -116 2 2 45 92 95 199 50 107 109 232 131 279 22
47 67 144 100 215 68 148 75 158 90 131 10 -18 11 -18 27 3 17 22 17 22 81
-56 35 -43 136 -165 224 -272 l159 -193 25 48 c13 27 61 117 107 199 45 83
101 186 125 230 24 44 60 111 82 148 21 38 38 70 38 72 0 4 260 482 312 573
29 51 31 52 49 36 17 -15 19 -15 25 0 3 9 10 16 14 16 6 0 218 -303 511 -732
52 -76 134 -196 183 -268 49 -72 92 -127 96 -123 4 4 66 117 138 250 l132 243
0 498 0 499 -307 179 c-168 98 -316 184 -327 190 -20 11 -32 -8 -221 -357z"/>
<path d="M5525 6927 c-27 -51 -120 -222 -207 -380 -87 -159 -158 -290 -158
-292 0 -2 -15 -30 -33 -62 -19 -32 -54 -96 -79 -143 -25 -47 -54 -101 -65
-120 -11 -19 -43 -79 -73 -133 -48 -91 -54 -97 -69 -83 -13 12 -20 13 -29 4
-16 -16 -15 -33 3 -48 13 -11 18 -10 30 6 10 13 17 15 22 8 5 -6 145 -178 312
-382 l305 -371 31 19 c29 18 109 65 374 219 135 77 114 49 322 436 77 142 142
262 145 265 3 3 12 -4 20 -14 14 -20 14 -20 28 0 18 23 12 30 120 -128 48 -71
93 -128 100 -128 33 0 35 27 38 373 3 287 1 344 -10 330 -7 -10 -47 -81 -89
-158 -42 -77 -91 -168 -110 -203 l-35 -62 -18 22 -17 22 -7 -22 c-4 -12 -10
-22 -14 -22 -4 0 -52 66 -107 147 -108 158 -676 987 -679 990 -1 1 -24 -39
-51 -90z"/>
<path d="M4263 6052 c-45 -97 -132 -284 -193 -416 -61 -131 -110 -239 -108
-241 2 -2 62 -36 133 -78 72 -41 186 -107 255 -147 68 -40 126 -68 127 -63 2
5 46 88 99 184 234 426 217 391 202 415 -19 30 -422 523 -428 523 -3 1 -42
-79 -87 -177z"/>
<path d="M6243 5559 c-88 -161 -136 -258 -125 -254 12 4 428 245 450 260 5 3
-169 255 -176 255 -4 0 -71 -118 -149 -261z"/>
<path d="M4802 5597 c-13 -23 -44 -80 -69 -127 -26 -47 -84 -154 -130 -239
-47 -84 -81 -157 -76 -161 9 -9 355 -213 493 -291 47 -27 91 -49 99 -49 23 0
311 165 311 179 0 4 -120 153 -266 331 -147 179 -280 342 -297 363 -17 20 -33
37 -36 37 -3 0 -17 -19 -29 -43z"/>
<path d="M4010 3585 l0 -325 60 0 60 0 0 135 0 135 75 0 c79 0 77 -1 77 50 0
11 0 25 -1 30 -1 6 -33 10 -76 10 l-75 0 0 100 0 100 95 0 95 0 0 45 0 45
-155 0 -155 0 0 -325z"/>
<path d="M4520 3904 c-45 -17 -61 -31 -71 -63 -6 -22 -9 -130 -7 -283 4 -305
-3 -291 145 -297 55 -2 113 2 135 8 65 20 68 36 67 308 -1 131 -4 249 -8 262
-13 47 -52 65 -154 68 -50 1 -99 0 -107 -3z m148 -321 l2 -233 -55 0 -55 0 0
228 c0 126 3 232 7 236 4 4 28 6 53 4 l45 -3 3 -232z"/>
<path d="M5002 3899 c-20 -6 -40 -22 -51 -40 -17 -28 -19 -53 -17 -282 1 -139
6 -260 10 -270 16 -34 60 -47 161 -47 148 0 169 18 170 145 l0 60 -57 3 -58 3
0 -60 c0 -55 -2 -61 -24 -67 -13 -3 -37 -4 -52 -2 l-29 3 0 235 0 235 50 0 50
0 3 -63 3 -63 57 3 57 3 -2 79 c-2 89 -14 110 -72 126 -44 12 -154 12 -199 -1z"/>
<path d="M5420 3616 l0 -295 24 -28 c24 -28 25 -28 146 -28 121 0 122 0 146
28 l24 28 0 295 0 294 -55 0 -55 0 -2 -277 -3 -278 -55 0 -55 0 -3 278 -2 277
-55 0 -55 0 0 -294z"/>
<path d="M5973 3900 c-55 -17 -63 -40 -63 -173 0 -65 5 -127 10 -137 17 -31
50 -44 130 -49 l75 -6 3 -70 c5 -106 0 -115 -53 -115 l-45 0 0 50 0 50 -61 0
-61 0 4 -70 c3 -56 8 -75 26 -93 21 -20 32 -22 138 -22 114 0 116 0 140 28 23
27 24 35 24 158 0 169 -6 176 -150 181 l-65 3 -3 78 c-3 93 5 109 57 105 35
-3 36 -4 41 -53 l5 -50 55 0 55 0 3 45 c5 68 -6 108 -34 126 -29 20 -183 29
-231 14z"/>
</g>
</svg>
